# xmcd
#
# Track frame offsets:
#	150
#	17106
#	31702
#	47427
#	64610
#	80875
#	97392
#	112213
#	127393
#	141084
#	151860
#	169061
#	188152
#	204864
#	222219
#	240327
#	257161
#	274136
#
# Disc length: 3819 seconds
#
# Revision: 1
# Processed by: cddbd v1.5.1PL0 Copyright (c) Steve Scherf et al.
# Submitted via: audiograbber 1.83.01
#
DISCID=040ee912
DTITLE=Various Artist - Hott Country 112
DYEAR=2005
DGENRE=Country
TTITLE0=Toby Keith - As Good As I Once Was
TTITLE1=Brooks and Dunn - Play Something Country
TTITLE2=Shania Twain - I'm Ain't  No Quitter
TTITLE3=Faith Hill - Mississippi Girl
TTITLE4=Jake Mathews - Kings For A Day
TTITLE5=Lee Ann Womack - He Oughta Know That By Now
TTITLE6=Lonestar - You're Like Comin' Home
TTITLE7=Melanie Laine - If Love Is A Weakness
TTITLE8=Phil Vassar - Good Ole Days
TTITLE9=Shelby Lynne - Go With It ( Radio Edit )
TTITLE10=Chris Ledoux - The Ride
TTITLE11=Trisha Yearwood - Georgia Rain
TTITLE12=Robert Earl Keen - What I Really Mean
TTITLE13=Chris Cagle - Miss Me Baby
TTITLE14=Billy Curlington - Must Be Doin' Somethin' Right
TTITLE15=Amanda Stott - She'll Get Over It
TTITLE16=Andy Griggs - I Gotta See This
TTITLE17=Steve Azur - Doin' It Right
EXTD=
EXTT0=
EXTT1=
EXTT2=
EXTT3=
EXTT4=
EXTT5=
EXTT6=
EXTT7=
EXTT8=
EXTT9=
EXTT10=
EXTT11=
EXTT12=
EXTT13=
EXTT14=
EXTT15=
EXTT16=
EXTT17=
PLAYORDER=
